<svg version="1" xmlns="http://www.w3.org/2000/svg" width="346.667" height="346.667" viewBox="0 0 260.000000 260.000000"><path d="M150 70c-12.5 1.7-12.5 1.7-16.5 9.2-1.5 2.9-4.8 7.4-7.3 10-5 5.2-5.3 4.8 4.2 6.3 5 .8 4.3 1.3-2.4 1.6-4.3.2-6 .9-8.6 3.1l-3.3 2.9-18.3-.7c-24-.8-24.2-.8-31.8.1-8.8 1-14.4 3.3-12.9 5.1.6.8 2 1.4 3.1 1.4s3.3 1.4 4.9 3.1c2.9 3.1 3.1 3.1 9.4 2.5 6-.6 6.5-.5 6.6 1.4.1 1.1.2 2.3.3 2.7.1.5.6 4.2 1 8.3 1.4 13.1 6.4 22.4 11.1 20.7 2.8-1.1 2.7 1.5-.1 3.9-6.5 5.3-12 7.7-23.1 9.9-1 .1-3.6.8-5.8 1.4-2.2.5-5.6 1.3-7.5 1.6-1.9.3-4.2.8-5 1-.8.2-4.2.7-7.5 1.1-6.7.7-12.5 2.7-12.5 4.4 0 1.5 4 2.8 10.7 3.5 6.3.6 24 4.6 31.4 7 2.5.9 5.4 1.7 6.5 1.9 4.1.8 10.1 1.6 14.4 2.1 16.4 1.6 25.5 2.7 26 3 .3.1 5 .6 10.5 1.1 18.3 1.5 58.1.9 63.6-1 .8-.3 3.1-.8 5.2-1.1 2-.3 5.4-.7 7.5-1 2-.3 4.2-.8 4.9-1 .7-.2 4.9.9 9.5 2.5 9.5 3.4 11.1 3.6 12.8 1.5 2.3-2.7-.4-5.9-12.2-14.7-14.2-10.5-16.5-11.9-25.8-15.2-13-4.7-20.3-7.9-22.1-9.7-1.8-1.8-1.8-3.9-.3-14.4 1.1-8 2.8-11.5 10.3-21 14.3-18.2 15.3-19.9 15.8-25.2.7-8.4-3.1-12.5-15.9-17.1-7.9-2.7-20.1-3.6-30.8-2.2zm-31.7 42.2c-6.4 10-10 17.2-12.7 25.5-1 2.9-2 5.3-2.3 5.3-1.5 0 1.1-9.8 4.3-16.1 4.2-8.4 13.2-23.1 14.8-24.1 2.5-1.6 1.5.7-4.1 9.4zm-35.9 4c.3 1.3.7 5.4 1.1 9.2.3 3.8 1.5 9.6 2.6 12.9 1.1 3.3 1.8 6.1 1.5 6.4-.7.7-3.5-4-4.7-7.8-1.8-6.4-3.2-22.9-1.9-22.9.5 0 1.2 1 1.4 2.2z"/></svg>